<svg id="Layer_2" data-name="Layer 2" xmlns="http://www.w3.org/2000/svg" viewBox="0 0 946.97 740.97"><defs><style>.cls-1{fill:none;stroke:#fff;stroke-miterlimit:10;}</style></defs><polyline class="cls-1" points="179.18 15.96 199.18 163.96 372.18 77.96 372.18 233.96 258.18 233.96 557.17 342.96 530.17 119.96 506.35 167.61 423.18 333.96 737.17 253.96 733.35 356.97 727.17 522.96 432.83 541.08 272.18 550.96 310.18 398.96 444.18 501.96 271.18 305.96 127.17 435.96 361.18 283.96 432.18 35.96 523.17 221.96 715.17 221.96 637.17 400.96 501.18 464.96 612.17 666.96 619.17 447.96 881.17 429.96 693.17 368.96 796.17 187.96 730.17 185.96 671.17 2.96 668.17 129.96 610.17 309.96 579.17 195.96 615.17 124.96 920.17 90.96 822.17 202.96 829.17 342.96 822.17 608.96 767.17 485.96 672.17 490.96 684.17 738.96 496.18 418.96 571.17 474.96 409.18 638.96 381.18 491.96 465.18 391.96 188.18 485.96 364.18 336.96 103.17 294.96 219.18 415.96 215.18 225.96 153.18 512.96 32.17 390.96 117.17 384.96 1.18 267.96 140.18 264.96 29.18 139.96 289.18 273.96 233.18 640.96 147.18 480.96 339.18 718.96 373.97 625.88 419.18 504.96 484.18 715.96 582.17 500.96 748.17 656.96 578.17 388.96 933.17 322.96 593.17 353.96 816.17 2.96 946.17 176.96 868.17 207.96 905.17 284.96 946.17 431.96 870.17 483.96 767.17 600.96 753.17 402.96 686.17 418.96 512.17 383.96 434.18 181.96 567.17 46.96 308.18 171.96 395.18 342.96 301.18 377.96 317.18 602.96"/></svg>